<?xml version="1.0" encoding="UTF-8" standalone="no"?><!DOCTYPE svg PUBLIC "-//W3C//DTD SVG 1.1//EN" "http://www.w3.org/Graphics/SVG/1.1/DTD/svg11.dtd"><svg width="100%" height="100%" viewBox="0 0 49 49" version="1.1" xmlns="http://www.w3.org/2000/svg" style="fill-rule:evenodd;clip-rule:evenodd;stroke-linejoin:round;stroke-miterlimit:2;"><rect id="icon_terminal" x="0" y="0" width="49" height="49" style="fill:none;"/><path d="M8.5,8.5c-2.485,0 -4.5,2.015 -4.5,4.5l0,23c0,2.485 2.015,4.5 4.5,4.5l32,0c2.485,0 4.5,-2.015 4.5,-4.5l0,-23c0,-2.485 -2.015,-4.5 -4.5,-4.5l-32,0Zm0,3l32,0c0.828,0 1.5,0.672 1.5,1.5l0,23c0,0.828 -0.672,1.5 -1.5,1.5l-32,0c-0.828,0 -1.5,-0.672 -1.5,-1.5l0,-23c0,-0.828 0.672,-1.5 1.5,-1.5Z" style="fill-rule:nonzero;"/><path d="M12.293,17.293c-0.391,0.391 -0.391,1.024 0,1.414l5.293,5.293l-5.293,5.293c-0.391,0.391 -0.391,1.024 0,1.414c0.391,0.391 1.024,0.391 1.414,0l6,-6c0.391,-0.391 0.391,-1.024 0,-1.414l-6,-6c-0.391,-0.391 -1.024,-0.391 -1.414,0Z" style="fill-rule:nonzero;"/><path d="M22,31l12,0c0.552,0 1,0.448 1,1c0,0.552 -0.448,1 -1,1l-12,0c-0.552,0 -1,-0.448 -1,-1c0,-0.552 0.448,-1 1,-1Z"/></svg>
